<?xml version="1.0" encoding="UTF-8" standalone="no"?>
<svg
   viewBox="0 0 721.47998 92.611508"
   version="1.1"
   id="svg1"
   sodipodi:docname="Hollow Knight text-only logo black.svg"
   width="721.47998"
   height="92.611511"
   inkscape:version="1.3.2 (1:1.3.2+202311252150+091e20ef0f)"
   xmlns:inkscape="http://www.inkscape.org/namespaces/inkscape"
   xmlns:sodipodi="http://sodipodi.sourceforge.net/DTD/sodipodi-0.dtd"
   xmlns="http://www.w3.org/2000/svg"
   xmlns:svg="http://www.w3.org/2000/svg">
  <defs
     id="defs1" />
  <sodipodi:namedview
     id="namedview1"
     pagecolor="#ffffff"
     bordercolor="#000000"
     borderopacity="0.25"
     inkscape:showpageshadow="2"
     inkscape:pageopacity="0.0"
     inkscape:pagecheckerboard="0"
     inkscape:deskcolor="#d1d1d1"
     inkscape:zoom="2.1263029"
     inkscape:cx="373.4181"
     inkscape:cy="7.5247979"
     inkscape:window-width="2560"
     inkscape:window-height="1376"
     inkscape:window-x="1920"
     inkscape:window-y="27"
     inkscape:window-maximized="1"
     inkscape:current-layer="svg1" />
  <path
     d="m 715,2.332616 h -29 c -4,-0.09 -8.31,-3.06999995 -11,-2.15999995 h -0.48 C 675.02,4.662616 673.38,13.012616 672.6,17.692616 l 2.88,0.24 3.12,-8.4 c 3.15,-1.79 9.93,-1.12 14.4,-1.44 v 52.56 c 0,9 0.94,20.25 -1.44,27.12 l -3.36,0.48 -0.24,2.16 20.4,0.24 0.48,-0.72 0.24,-1.68 -5,-1.2 c -3,-5.16 -1.92,-16.19 -1.92,-24 v -54.72 c 12.5,-0.3 13.86,-0.07 16.08,10.32 H 721 l 0.48,-17.28 c -2.34,-0.56999995 -4.3,0.6 -6.48,0.96 z m -207.84,0.24 c -3.17,-1.45 -13.83,-0.54 -18.48,-0.48 -0.44186,0.632434 -0.53226,1.445997 -0.24,2.16 l 4.08,1.2 c 3.66,1.85 2.64,11.15 2.64,16.56 l 0.48,46.56 -30,-51.36 c -3.06,-5.16 -5.57,-13 -10.08,-16.79999995 l -2.4,-0.24 -1.2,1.19999995 v 64.28 c 0,7.45 0.49,16.09 -1.2,21.84 -7.81,2.47 -11.68,-5.4 -14.64,-9.6 -5.64,-8 -10.92,-16.74 -16.08,-25.2 l -7,-11.76 c 0.79,-3.41 3.59,-6.18 5.28,-8.88 4.34,-6.94 13.28,-27.18 22.56,-27.6 l 0.24,-1.92 c -3.65,-1.66999995 -11.68,-0.54 -16.32,-0.48 -1.07,2.53 2,3.56 0.72,7 l -18,30 v 0.48 c -1.57,-4 -0.29,-30.58 0.72,-34.08 1.21842,-0.536156 2.51483,-0.873763 3.84,-1 l 0.24,-1.68 v -0.24 c -2.53,-1.16 -16.27,-0.9 -19.68,-0.24 -0.33573,0.58279 -0.50198,1.247782 -0.48,1.92 l 4.84,1.44 c 2.32,2.25 1.44,16.56 1.44,21.6 0,19.65 1.66,42.29 -1.2,60 -0.84,0.46 -2.26,0.54 -3.36,1 l -0.72,0.48 0.24,1.68 h 20.16 l 0.24,-1.92 c -1.53,-0.72 -4.34,-0.81 -5.28,-2.16 -2.33,-3.35 -1.28,-29.55 -1.2,-36.48 h 0.24 l 6.24,11 c 3.92,6.57 7.43,13.2 11.52,19.44 2.34,3.57 4.84,8.32 9.12,9.84 4.05,1.44 13,0.94 17.52,0.24 l 13.44,0.24 0.48,-2.4 -4.56,-1 c -3.56,-5 -1.2,-13.23 -2.4,-21.12 l -0.76,-41.44 h 0.24 l 14.16,24.72 c 8.51,14.26 16,29.33 25.92,42.24 l 2.88,-0.48 c 1.45,-6 0.48,-14.93 0.48,-21.84 l 0.24,-44.16 c 0,-6.61 -0.54,-14.79 1,-19.92 2,-0.62 4.02,0.32 4.04,-2.64 z m 37,30.48 c -6,29.16 8.56,67.600004 40.08,58.08 3.51642,-1.22297 6.81221,-3.00593 9.76,-5.28 2.41,-10.81 -1.09,-26 1.44,-36.24 1.1822,-0.609899 2.51715,-0.860202 3.84,-0.72 l 0.48,-2.16 c -3.4,-1.55 -15.18,-0.54 -20.16,-0.48 -0.41623,0.551583 -0.50765,1.282931 -0.24,1.92 0.77,1 4.24,1.72 5.28,2.4 2.22,8.89 0.78,22.2 0.72,32.4 -6.15,6.89 -16.64,0.66 -20.88,-3.6 -10.23,-10.28 -15.89,-36 -10.08,-55.92 2,-6.84 5.73,-14.27 12,-16.8 13.36,-5.4 24.4,5.24 24.24,17.28 1.06575,0.425472 2.21775,0.590045 3.36,0.48 l 0.72,-20.4 c -5.94,-2.84 -13.71,-3.77999995 -22.08,-3.59999995 -3.17,1.24999995 -6.54,1.16999995 -9.36,2.39999995 -11.28,4.93 -16.41,16.75 -19.2,30.24 z m -242.96,59.28 h 2.4 c 3.71,-5.7 4.35,-14.66 6.24,-22.08 l 10.08,-43 14.64,64.08 0.72,1 h 2.4 c 3.85,-6.12 4.15,-16.12 6,-24 l 8.4,-40.08 c 2,-8.1 2.69,-16.51 6,-23 l 3.6,-0.48 0.48,-2.4 -15.84,-0.48 -1.68,0.24 -0.24,2.16 3.6,1 c 2.65,4.74 -0.38,13.87 -1.44,18.72 l -8.16,44.4 h -0.24 l -9.16,-41.36 c -2,-8.24 -2.61,-17.4 -5.72,-24.72 l -2.88,-0.24 -15.4,65.76 h -0.24 l -7.16,-42.2 c -1.27,-6 -3.29,-13.58 -2.64,-20.16 1.1822,-0.609899 2.51715,-0.860202 3.84,-0.72 l 0.48,-1 -0.28,-1.44 -20.4,-0.24 -0.48,1.68 c 1.64,1.67 4.71,1.28 6,3.36 3.3,5.31 3.5,17.76 5,24.72 l 11.52,59 c -0.05,0.99 -0.1,0.8 0.56,1.48 z m -283.92,-5 c -4.28,-6.15 -2.28,-31.96 -2.16,-42.52 h 28.56 c 0,13.54 2,31.25 -1.2,42.72 l -2.88,0.72 c -0.8,0.54 -0.76,0.79 -0.72,2.16 l 20.4,0.24 c 0.441859,-0.63243 0.532255,-1.446 0.24,-2.16 l -4.8,-1.44 c -2.88,-4.92 -1.92,-15.69 -1.92,-23 v -37.48 c 0,-7.15 -0.49,-15.31 1,-21.12 1.093624,-0.614773 2.354049,-0.866858 3.6,-0.72 l 0.48,-0.72 v -1.68 l -19.92,-0.24 v 2.16 c 0.65,0.65 2.74,0.86 3.84,1 3.67,5.19 2,24.91 1.92,33.84 h -28.6 c 0,-10.64 -1.53,-24.63 1,-33.6 1.244652,-0.456722 2.530675,-0.791624 3.84,-1 l 0.24,-1.92 c -3.36,-1.54 -15,-0.54 -19.92,-0.48 l -0.28,2.4 4.32,1 c 2.92,4.41 1.68,14.96 1.68,22.04 v 36.72 c 0,7.94 0.4,16.68 -1.2,23 -0.77,0.67 -2.53,0.86 -3.6,1.2 l -0.2,1.48 v 0.24 c 3.26,1.49 15.55,0.54 20.4,0.48 l 0.48,-0.72 v -1.2 c -0.73,-1 -3.16,-1.3 -4.6,-1.44 z m 120.24,-81.88 c 2.92,4.45 1.68,15 1.68,22.08 v 36.72 c 0,7.94 0.4,16.68 -1.2,23 l -3.6,1.2 -0.24,1.68 c 3.28,1.49 7.68,-0.61 11.76,0 6.39,1 16.56,1.71 22.56,0 2.32,-3.44 2.53,-10.67 2.4,-16.32 l -2.4,-0.24 c -1.66,1.29 -1.32,5.87 -2.16,7.92 -1.7,4.13 -11.68,5.24 -15.84,2.16 -3.18,-2.35 -2.4,-12.69 -2.4,-18 v -43.16 c 0,-5.15 -1.11,-13.84 1.2,-17 0.8,-1 2.54,-0.51 3.84,-1 0.79,-0.53 0.71,-0.6 0.72,-1.92 -3.42,-1.56 -15.22,-0.54 -20.16,-0.48 -0.40683,0.730196 -0.5747,1.569498 -0.48,2.4 z m 41.28,82.56 -0.48,2.16 c 3,1.35 7.31,-0.22 11,0 7,0.42 17.38,2 23.52,-0.24 2.12,-3.55 2.28,-10.6 2.16,-16.08 l -2.6,-0.2 c -1.48,3.09 -1.13,7.57 -3.12,10.08 -2.48,3.13 -13.94,1.55 -15.6,-1 -2.64,-4 -1.44,-14.44 -1.44,-20.4 v -37 c 0,-6.68 -0.54,-14.66 1,-19.92 1.88,-0.87 4.63,0 4.8,-2.88 -3.42,-1.55999995 -15.22,-0.54 -20.16,-0.48 l -0.72,0.72 c 0.72,2.26 2.28,2.16 4.56,2.64 2.92,4.45 1.68,15 1.68,22.08 v 36.76 c 0,7.94 0.4,16.68 -1.2,23 -1.04481,0.55328 -2.21905,0.81576 -3.4,0.76 z m 337,0.24 c -0.80902,0.59546 -0.80902,1.80454 0,2.4 l 20.16,-0.24 c 0.53,-0.35 0.45,-1 0.48,-1.92 l -4.8,-1.2 c -3.12,-4.48 -2.16,-14.74 -2.16,-22.08 v -39.12 c 0,-6.89 -0.58,-15.18 1,-20.64 1.09362,-0.614773 2.35405,-0.866858 3.6,-0.72 l 0.48,-2.16 c -3.18,-1.46 -14.09,-0.54 -18.72,-0.48 l -0.48,1 v 1 c 1.22,1.6 3.77,0.91 4.56,3.12 1.67,4.64 0.48,12.7 0.48,18.24 v 40 c 0,6.49 1.38,17 -1.2,21.6 -0.83,1.14 -2.06,0.72 -3.44,1.2 z m 96.48,-82.8 c 2.59,3.92 1.68,12.57 1.68,19 v 44.88 c 0,4.33 0.59,16 -1.2,18.24 l -2.88,0.72 c -0.79,0.48 -0.78,0.59 -1,1.68 v 0.24 c 2.47,1.13 17.24,0.89 20.64,0.24 l 0.48,-0.48 -0.24,-1.2 c -0.69,-1 -3.12,-1.3 -4.56,-1.44 -4.28,-6.11 -2.26,-31.92 -2.16,-42.48 h 28.56 c 0,13.54 2,31.25 -1.2,42.72 l -3.12,0.72 -0.72,0.48 0.24,1.2 c 0.67,0.87 18,0.87 20.64,0.48 v -1.92 l -4.8,-1.44 c -2.88,-4.92 -1.92,-15.69 -1.92,-23 v -37.52 c 0,-7.15 -0.49,-15.31 1,-21.12 1.09362,-0.614773 2.35405,-0.866858 3.6,-0.72 l 0.48,-0.72 v -1.68 l -19.68,-0.24 c -0.44186,0.632434 -0.53226,1.445997 -0.24,2.16 0.65,0.65 2.74,0.86 3.84,1 3.67,5.19 2,24.91 1.92,33.84 H 623 c 0,-10.64 -1.53,-24.63 1,-33.6 1.11457,-0.556012 2.35731,-0.804561 3.6,-0.72 l 0.48,-1.92 v -0.24 c -3.33,-1.52 -14.82,-0.54 -19.68,-0.48 l -0.72,0.72 0.24,1.68 z m -514.12,86.64 c 36.19,-6.18 40.89,-92.16999995 -3.84,-91.67999995 C 90.86,1.862616 87.64,2.042616 84.72,3.772616 c -10.62,6.29 -15.21,19.45 -17.72,33.88 -4.19,23.35 7.48,58.49 31.16,54.44 z m -13.44,-81.6 c 2,-2.59 4.78,-3.21 7.92,-4.8 31,-0.43 30.84,76.78 7.2,80.88 -9.78,1.7 -15.67,-8.77 -18.24,-14.88 -7.13,-16.98 -7.49,-47.77 3.12,-61.2 z m 151.68,-7.2 c -11.04,6.51 -15.83,19.36 -18.48,34.36 -4.15,23.39 7.52,58.53 31.2,54.48 35.82,-6.12 40.66,-92.16999995 -4.08,-91.67999995 C 242,1.652616 239,1.772616 236.4,3.292616 Z m 14.16,83.28 c -9.73,1.68 -16.16,-9.86 -18.72,-16.08 -6.94,-16.9 -6.59,-47.1 3.6,-60 2.1,-2.66 4.92,-3.17 8.16,-4.8 30.93,-0.43 31.04,76.71 6.96,80.88 z"
     class="cls-1"
     data-name="Layer 1"
     id="path1"
     sodipodi:nodetypes="ccccccccscccccccscccccccccccccccsccccccccccccccccccsccccccccccsccccccccccccccccccccccccccccccccccccccccccccccccccccccccccccccccccccccccccccccccsscccccccccccccccssccccccccccsscccccccccssccccccccccccccsscccccsscccccccsscccccccssccccsscccccccccccccccccssccccccccccccccccccccccccccccccccccccc" />
</svg>
